<svg width="24" height="24" viewBox="0 0 24 24" fill="none" xmlns="http://www.w3.org/2000/svg">
<path d="M10.7502 2C11.4416 2 12.0002 2.55859 12.0002 3.25V11.375H9.50016V3.25C9.50016 2.55859 10.0588 2 10.7502 2ZM14.5002 8.25C15.1916 8.25 15.7502 8.80859 15.7502 9.5V12C15.7502 12.6914 15.1916 13.25 14.5002 13.25C13.8087 13.25 13.2502 12.6914 13.2502 12V9.5C13.2502 8.80859 13.8087 8.25 14.5002 8.25ZM17.0002 10.75C17.0002 10.0586 17.5587 9.5 18.2502 9.5C18.9416 9.5 19.5002 10.0586 19.5002 10.75V13.25C19.5002 13.9414 18.9416 14.5 18.2502 14.5C17.5587 14.5 17.0002 13.9414 17.0002 13.25V10.75ZM5.64469 4L8.87125 11.375H6.14078L3.35563 5C3.07828 4.36719 3.36734 3.63281 4.00016 3.35547C4.63297 3.07812 5.37125 3.36719 5.64469 4ZM6.69938 12.6445L6.69156 12.625H9.42203H10.4416C11.3048 12.625 12.0041 13.3242 12.0041 14.1875C12.0041 15.0508 11.3048 15.75 10.4416 15.75H8.25406C7.91031 15.75 7.62906 16.0312 7.62906 16.375C7.62906 16.7188 7.91031 17 8.25406 17H10.4416C11.9963 17 13.2541 15.7422 13.2541 14.1875V14.1641C13.6213 14.375 14.047 14.5 14.5041 14.5C15.0197 14.5 15.4963 14.3438 15.8947 14.0781C16.2345 15.0508 17.1642 15.75 18.2541 15.75C18.7111 15.75 19.1369 15.6289 19.5041 15.4141V15.75C19.5041 19.2031 16.7072 22 13.2541 22H10.8439C9.18766 22 7.59781 21.3398 6.42594 20.168L5.97281 19.7148C5.0275 18.7773 4.50016 17.5039 4.50016 16.1797V15.125C4.50016 13.8477 5.46109 12.793 6.69938 12.6445Z" fill="white"/>
</svg>
