<svg width="24" height="24" viewBox="0 0 24 24" fill="none" xmlns="http://www.w3.org/2000/svg">
<path d="M7.59416 2.00391H16.3442C17.3793 2.00391 18.2231 2.85547 18.184 3.88672C18.1762 4.09375 18.1684 4.30078 18.1567 4.50391H20.0942C21.1137 4.50391 22.0121 5.34766 21.934 6.44922C21.641 10.5 19.5707 12.7266 17.3246 13.8906C16.7074 14.2109 16.0785 14.4492 15.4809 14.625C14.6918 15.7422 13.8715 16.332 13.2192 16.6484V19.5039H15.7192C16.4106 19.5039 16.9692 20.0625 16.9692 20.7539C16.9692 21.4453 16.4106 22.0039 15.7192 22.0039H8.21916C7.52775 22.0039 6.96916 21.4453 6.96916 20.7539C6.96916 20.0625 7.52775 19.5039 8.21916 19.5039H10.7192V16.6484C10.0942 16.3477 9.31681 15.7891 8.559 14.7617C7.84025 14.5742 7.059 14.2891 6.29728 13.8594C4.184 12.6758 2.27775 10.4453 2.00431 6.44141C1.93009 5.34375 2.82463 4.5 3.84416 4.5H5.78166C5.76994 4.29688 5.76213 4.09375 5.75431 3.88281C5.71525 2.84766 6.559 2 7.59416 2V2.00391ZM5.92228 6.37891H3.87541C4.11759 9.6875 5.63713 11.3438 7.20353 12.2227C6.64103 10.7656 6.17619 8.86328 5.92228 6.37891ZM16.8012 12.0352C18.3832 11.1055 19.8129 9.45312 20.0551 6.37891H18.0121C17.7699 8.75781 17.3324 10.6055 16.8012 12.0352Z" fill="white"/>
</svg>
