<svg width="24" height="24" viewBox="0 0 24 24" fill="none" xmlns="http://www.w3.org/2000/svg">
<g clip-path="url(#clip0_286_1290)">
<path d="M20.75 3.25214C20.75 2.74824 20.4453 2.29121 19.9766 2.09589C19.5078 1.90058 18.9727 2.00996 18.6133 2.36543L16.9102 4.07246C15.0352 5.94746 12.4922 7.00214 9.83984 7.00214H9.5H8.25H4.5C3.12109 7.00214 2 8.12324 2 9.50214V13.2521C2 14.6311 3.12109 15.7521 4.5 15.7521V20.7521C4.5 21.4436 5.05859 22.0021 5.75 22.0021H8.25C8.94141 22.0021 9.5 21.4436 9.5 20.7521V15.7521H9.83984C12.4922 15.7521 15.0352 16.8068 16.9102 18.6818L18.6133 20.385C18.9727 20.7443 19.5078 20.8498 19.9766 20.6545C20.4453 20.4592 20.75 20.0061 20.75 19.4982V13.7326C21.4766 13.3889 22 12.4631 22 11.3732C22 10.2834 21.4766 9.35761 20.75 9.01386V3.25214ZM18.25 6.24824V11.3771V16.5061C15.9531 14.4162 12.957 13.2521 9.83984 13.2521H9.5V9.50214H9.83984C12.957 9.50214 15.9531 8.33808 18.25 6.24824Z" fill="white"/>
</g>
<defs>
<clipPath id="clip0_286_1290">
<rect width="20" height="20" fill="white" transform="translate(2 2)"/>
</clipPath>
</defs>
</svg>
