<svg width="24" height="24" viewBox="0 0 24 24" fill="none" xmlns="http://www.w3.org/2000/svg">
<path d="M16.3589 11.9475C15.3796 12.1233 14.3379 11.8157 13.5809 11.0173L12.2578 9.62207C11.737 9.07275 11.4453 8.33301 11.4453 7.55664V7.11353L8.67766 5.52051C8.49362 5.41431 8.37903 5.20557 8.38944 4.98218C8.39986 4.75879 8.52487 4.56104 8.71933 4.46948L10.3584 3.70044C10.9973 3.40381 11.6883 3.25 12.3898 3.25H13.0183C14.2927 3.25 15.5185 3.7627 16.4457 4.68188L17.9944 6.21997C18.8348 7.05493 19.1473 8.25977 18.9181 9.36938L19.4668 9.95166L19.7446 9.65869C20.071 9.31445 20.5988 9.31445 20.9218 9.65869L21.7552 10.5376C22.0816 10.8818 22.0816 11.4385 21.7552 11.7791L18.6994 15.0017C18.3729 15.3459 17.8451 15.3459 17.5222 15.0017L16.6888 14.1228C16.3624 13.7786 16.3624 13.2219 16.6888 12.8813L16.9666 12.5884L16.3589 11.9475ZM2.95147 17.0598L11.0598 9.93701C11.1814 10.1165 11.3203 10.2886 11.4696 10.4497L12.7926 11.845C13.001 12.0647 13.2232 12.2551 13.4593 12.4199L6.68443 20.9966C6.18092 21.6338 5.43433 22 4.64954 22C3.18413 22 2 20.7476 2 19.2058C2 18.3782 2.35072 17.5908 2.95147 17.0598Z" fill="white"/>
</svg>
