<svg width="24" height="24" viewBox="0 0 24 24" fill="none" xmlns="http://www.w3.org/2000/svg">
<g clip-path="url(#clip0_286_1302)">
<path d="M4.22222 3.25C2.99653 3.25 2 4.23096 2 5.4375V16.5312C2 17.7378 2.99653 18.7188 4.22222 18.7188H10.3333L9.96181 19.8125H7.55556C6.94097 19.8125 6.44445 20.3013 6.44445 20.9062C6.44445 21.5112 6.94097 22 7.55556 22H16.4444C17.059 22 17.5556 21.5112 17.5556 20.9062C17.5556 20.3013 17.059 19.8125 16.4444 19.8125H14.0382L13.6667 18.7188H19.7778C21.0035 18.7188 22 17.7378 22 16.5312V5.4375C22 4.23096 21.0035 3.25 19.7778 3.25H4.22222ZM20.125 5.4375V15.125H3.875V5.4375H20.125Z" fill="white"/>
</g>
<defs>
<clipPath id="clip0_286_1302">
<rect width="20" height="20" fill="white" transform="translate(2 2)"/>
</clipPath>
</defs>
</svg>
