<svg width="24" height="24" viewBox="0 0 24 24" fill="none" xmlns="http://www.w3.org/2000/svg">
<path d="M4.25 2C4.94141 2 5.5 2.55859 5.5 3.25V3.875L8.19531 3.20312C9.68359 2.83203 11.2539 3.00391 12.6289 3.69141C14.4375 4.59766 16.5664 4.59766 18.375 3.69141L18.75 3.50391C19.5547 3.09766 20.5 3.68359 20.5 4.58203V15.5078C20.5 16.0273 20.1758 16.4961 19.6875 16.6797L18.332 17.1875C16.5273 17.8633 14.5195 17.7578 12.7969 16.8984C11.3164 16.1562 9.61719 15.9727 8.01172 16.375L5.5 17V20.75C5.5 21.4414 4.94141 22 4.25 22C3.55859 22 3 21.4414 3 20.75V3.25C3 2.55859 3.55859 2 4.25 2ZM5.5 9.30859L8 8.76562V11.3242L5.5 11.8672V14.4258L7.40625 13.9492C7.60547 13.8984 7.80078 13.8555 8 13.8203V11.3242L9.51953 10.9961C9.84375 10.9258 10.1719 10.8984 10.5 10.9141V8.41406C11.0312 8.42969 11.5625 8.51563 12.0781 8.66406L13 8.93359V11.5391L11.3711 11.0586C11.0859 10.9766 10.793 10.9258 10.5 10.9102V13.6992C11.3516 13.7734 12.1914 13.9609 13 14.2617V11.5352L13.8867 11.7969C14.4141 11.9531 14.9531 12.0469 15.5 12.0859V9.57812C15.1953 9.54688 14.8906 9.48828 14.5938 9.40234L13 8.93359V6.51172C12.4922 6.36328 11.9922 6.16797 11.5078 5.92578C11.1875 5.76562 10.8477 5.65234 10.5 5.58203V8.41016C9.99219 8.39453 9.48438 8.44141 8.98828 8.55078L8 8.76562V5.82812L5.5 6.45312V9.30859ZM15.5 15.1133C16.1562 15.1719 16.8242 15.0859 17.4531 14.8477L18 14.6445V11.8438L17.6914 11.9141C16.9727 12.082 16.2344 12.1367 15.5 12.0898V15.1133ZM18 9.27734V6.51172C17.1836 6.75 16.3438 6.86719 15.5 6.86719V9.57812C16.043 9.63281 16.5938 9.59766 17.1289 9.47656L18 9.27344V9.27734Z" fill="white"/>
</svg>
