<svg width="24" height="24" viewBox="0 0 24 24" fill="none" xmlns="http://www.w3.org/2000/svg">
<g clip-path="url(#clip0_286_1300)">
<path d="M10.572 2C7.54182 2 6.28601 3.94371 6.28601 6.28601C6.28601 7.07464 6.66271 7.86676 6.66271 7.86676C6.51127 7.95391 6.26222 8.23055 6.32508 8.72201C6.44223 9.6385 6.83956 9.87189 7.09243 9.89118C7.18887 10.7462 8.10757 11.84 8.42902 11.9993V13.428C7.71468 15.571 2 14.1423 2 19.1427H10.2316C9.99373 18.4712 9.85769 17.7526 9.85769 16.9997C9.85769 14.4716 11.3203 12.2911 13.4419 11.2403C13.7341 10.8331 14.0016 10.3319 14.0516 9.89118C14.3045 9.87189 14.7018 9.6385 14.819 8.72201C14.8818 8.22983 14.6328 7.95391 14.4813 7.86676C14.4813 7.86676 14.858 7.15107 14.858 6.28601C14.858 4.55161 14.1773 3.0715 12.715 3.0715C12.715 3.0715 12.2071 2 10.572 2ZM16.2867 11.9993C13.5251 11.9993 11.2864 14.238 11.2864 16.9997C11.2864 19.7613 13.5251 22 16.2867 22C19.0483 22 21.2871 19.7613 21.2871 16.9997C21.2871 14.238 19.0483 11.9993 16.2867 11.9993ZM16.2867 14.1423C16.681 14.1423 17.001 14.4616 17.001 14.8566V16.2853H18.4297C18.824 16.2853 19.1441 16.6046 19.1441 16.9997C19.1441 17.3947 18.824 17.714 18.4297 17.714H17.001V19.1427C17.001 19.5377 16.681 19.857 16.2867 19.857C15.8924 19.857 15.5724 19.5377 15.5724 19.1427V17.714H14.1437C13.7494 17.714 13.4294 17.3947 13.4294 16.9997C13.4294 16.6046 13.7494 16.2853 14.1437 16.2853H15.5724V14.8566C15.5724 14.4616 15.8924 14.1423 16.2867 14.1423Z" fill="white"/>
</g>
<defs>
<clipPath id="clip0_286_1300">
<rect width="20" height="20" fill="white" transform="translate(2 2)"/>
</clipPath>
</defs>
</svg>
