<svg width="24" height="24" viewBox="0 0 24 24" fill="none" xmlns="http://www.w3.org/2000/svg">
<path d="M3.75 5.75C3.75 5.05859 4.36445 4.5 5.125 4.5H18.875C19.6355 4.5 20.25 5.05859 20.25 5.75C20.25 6.44141 19.6355 7 18.875 7H5.125C4.36445 7 3.75 6.44141 3.75 5.75ZM3.75 12C3.75 11.3086 4.36445 10.75 5.125 10.75H18.875C19.6355 10.75 20.25 11.3086 20.25 12C20.25 12.6914 19.6355 13.25 18.875 13.25H5.125C4.36445 13.25 3.75 12.6914 3.75 12ZM20.25 18.25C20.25 18.9414 19.6355 19.5 18.875 19.5H5.125C4.36445 19.5 3.75 18.9414 3.75 18.25C3.75 17.5586 4.36445 17 5.125 17H18.875C19.6355 17 20.25 17.5586 20.25 18.25Z" fill="white"/>
</svg>
