<svg width="24" height="24" viewBox="0 0 24 24" fill="none" xmlns="http://www.w3.org/2000/svg">
<path d="M11.9276 2.00269C7.75829 1.89653 4.02226 4.94557 3.36225 9.0641C2.86839 12.1472 4.04294 14.9791 6.12221 16.8091C6.76068 17.3707 7.09578 18.2015 7.09578 19.0522V22H14.7882V20.8011C14.7882 20.1387 15.2114 19.5514 15.8399 19.3422L18.352 18.5054C18.9797 18.2953 19.4037 17.7073 19.4037 17.045V14.1108L21.148 13.5098C21.3099 13.4648 21.4527 13.3681 21.5544 13.2343C21.6562 13.1005 21.7113 12.9371 21.7114 12.7691C21.7109 12.5921 21.6493 12.4207 21.5371 12.2838L21.5161 12.2583C21.5088 12.2496 21.5012 12.2411 21.4935 12.2327L19.3721 9.69061C19.0638 5.44982 16.2204 2.11082 11.9276 2.00269ZM12.3272 6.62866C12.4252 6.60879 12.5284 6.60863 12.6322 6.63017C13.0484 6.71324 13.3185 7.1177 13.2347 7.53463L11.6962 15.2271C11.6239 15.5932 11.3027 15.8461 10.9435 15.8461C10.8935 15.8461 10.8425 15.8418 10.7918 15.831C10.3756 15.748 10.1039 15.342 10.1878 14.9251L11.7263 7.23264C11.788 6.91936 12.0335 6.68827 12.3272 6.62866ZM8.00775 8.16715C8.10605 8.18589 8.20287 8.2253 8.29171 8.28434C8.64557 8.5205 8.74122 8.99721 8.50506 9.35106L7.25053 11.2306L8.50506 13.1116C8.74122 13.4655 8.64557 13.9422 8.29171 14.1784C8.16017 14.2653 8.01268 14.3076 7.86653 14.3076C7.61806 14.3076 7.37268 14.1873 7.22499 13.965L5.6865 11.6573C5.51419 11.3988 5.51419 11.0624 5.6865 10.8039L7.22499 8.49618C7.40153 8.23079 7.71287 8.11093 8.00775 8.16715ZM15.4132 8.16715C15.7077 8.11093 16.0204 8.23079 16.1975 8.49618L17.736 10.8039C17.9083 11.0624 17.9083 11.3988 17.736 11.6573L16.1975 13.965C16.0498 14.1873 15.8044 14.3076 15.556 14.3076C15.4098 14.3076 15.2623 14.2653 15.1308 14.1784C14.7769 13.9422 14.6813 13.4655 14.9174 13.1116L16.1719 11.2306L14.9174 9.34956C14.6813 8.99571 14.7769 8.51899 15.1308 8.28284C15.2192 8.2238 15.3151 8.18589 15.4132 8.16715Z" fill="white"/>
</svg>
