<svg width="20" height="20" viewBox="0 0 20 20" fill="none" xmlns="http://www.w3.org/2000/svg">
<path d="M9.92759 0.00268869C5.75829 -0.103467 2.02226 2.94557 1.36225 7.0641C0.868394 10.1472 2.04294 12.9791 4.12221 14.8091C4.76068 15.3707 5.09578 16.2015 5.09578 17.0522V20H12.7882V18.8011C12.7882 18.1387 13.2114 17.5514 13.8399 17.3422L16.352 16.5054C16.9797 16.2953 17.4037 15.7073 17.4037 15.045V12.1108L19.148 11.5098C19.3099 11.4648 19.4527 11.3681 19.5544 11.2343C19.6562 11.1005 19.7113 10.9371 19.7114 10.7691C19.7109 10.5921 19.6493 10.4207 19.5371 10.2838L19.5161 10.2583C19.5088 10.2496 19.5012 10.2411 19.4935 10.2327L17.3721 7.69061C17.0638 3.44982 14.2204 0.110824 9.92759 0.00268869ZM10.3272 4.62866C10.4252 4.60879 10.5284 4.60863 10.6322 4.63017C11.0484 4.71324 11.3185 5.1177 11.2347 5.53463L9.69621 13.2271C9.62391 13.5932 9.30274 13.8461 8.9435 13.8461C8.8935 13.8461 8.84252 13.8418 8.79175 13.831C8.37559 13.748 8.10393 13.342 8.18778 12.9251L9.72626 5.23264C9.788 4.91936 10.0335 4.68827 10.3272 4.62866ZM6.00775 6.16715C6.10605 6.18589 6.20287 6.2253 6.29171 6.28434C6.64557 6.5205 6.74122 6.99721 6.50506 7.35106L5.25053 9.2306L6.50506 11.1116C6.74122 11.4655 6.64557 11.9422 6.29171 12.1784C6.16017 12.2653 6.01268 12.3076 5.86653 12.3076C5.61806 12.3076 5.37268 12.1873 5.22499 11.965L3.6865 9.65729C3.51419 9.39882 3.51419 9.06237 3.6865 8.80391L5.22499 6.49618C5.40153 6.23079 5.71287 6.11093 6.00775 6.16715ZM13.4132 6.16715C13.7077 6.11093 14.0204 6.23079 14.1975 6.49618L15.736 8.80391C15.9083 9.06238 15.9083 9.39882 15.736 9.65729L14.1975 11.965C14.0498 12.1873 13.8044 12.3076 13.556 12.3076C13.4098 12.3076 13.2623 12.2653 13.1308 12.1784C12.7769 11.9422 12.6813 11.4655 12.9174 11.1116L14.1719 9.2306L12.9174 7.34956C12.6813 6.99571 12.7769 6.51899 13.1308 6.28284C13.2192 6.2238 13.3151 6.18589 13.4132 6.16715Z" fill="white"/>
</svg>
