<svg width="24" height="24" viewBox="0 0 24 24" fill="none" xmlns="http://www.w3.org/2000/svg">
<path d="M21.2592 11.7394C21.6449 12.0084 22 12.2753 22 13.2138C22 14.1544 21.4981 14.535 20.9611 14.7997C21.1803 15.1563 21.2504 15.5872 21.1562 15.9941C20.9874 16.7466 20.297 17.3306 19.6833 17.5034C19.9485 17.9278 20.0318 18.3456 19.7162 18.8597C19.3107 19.505 18.9578 19.75 17.3973 19.75H11.0412C8.8757 19.75 7.75351 18.5556 7.75351 17.5625V12.4547C7.75351 9.76406 10.9688 7.47812 10.9688 5.60781L10.7365 3.27813C10.7255 3.13594 10.754 2.78813 10.8636 2.6875C11.039 2.51469 11.5234 2.25 12.2554 2.25C12.7332 2.25 13.051 2.33969 13.4258 2.51906C14.6992 3.125 15.0302 4.65844 15.0302 5.89219C15.0302 6.485 14.1228 8.26125 14.0001 8.87594C14.0001 8.87594 15.9003 8.45594 18.1184 8.44062C20.4438 8.4275 21.9518 8.85625 21.9518 10.2825C21.9518 10.8534 21.4718 11.4266 21.2592 11.7394ZM3.31506 10.0895H4.80295C5.15172 10.0895 5.48622 10.2277 5.73284 10.4739C5.97946 10.72 6.11801 11.0539 6.11801 11.402V18.4375C6.11801 18.7856 5.97946 19.1194 5.73284 19.3656C5.48622 19.6117 5.15172 19.75 4.80295 19.75H3.31506C2.96628 19.75 2.63179 19.6117 2.38517 19.3656C2.13855 19.1194 2 18.7856 2 18.4375V11.402C2 11.0539 2.13855 10.72 2.38517 10.4739C2.63179 10.2277 2.96628 10.0895 3.31506 10.0895Z" fill="white"/>
</svg>
