<svg width="24" height="24" viewBox="0 0 24 24" fill="none" xmlns="http://www.w3.org/2000/svg">
<path d="M12 22C14.6522 22 17.1957 20.9464 19.0711 19.0711C20.9464 17.1957 22 14.6522 22 12C22 9.34784 20.9464 6.8043 19.0711 4.92893C17.1957 3.05357 14.6522 2 12 2C9.34784 2 6.8043 3.05357 4.92893 4.92893C3.05357 6.8043 2 9.34784 2 12C2 14.6522 3.05357 17.1957 4.92893 19.0711C6.8043 20.9464 9.34784 22 12 22ZM9.5 8.25H14.5C15.1914 8.25 15.75 8.80859 15.75 9.5V14.5C15.75 15.1914 15.1914 15.75 14.5 15.75H9.5C8.80859 15.75 8.25 15.1914 8.25 14.5V9.5C8.25 8.80859 8.80859 8.25 9.5 8.25Z" fill="white"/>
</svg>
