<svg width="24" height="24" viewBox="0 0 24 24" fill="none" xmlns="http://www.w3.org/2000/svg">
<path d="M5.95 19.2C3.21719 19.2 1 16.9828 1 14.25C1 12.0913 2.38187 10.2556 4.30687 9.57844C4.30344 9.48563 4.3 9.39282 4.3 9.3C4.3 6.26125 6.76125 3.8 9.8 3.8C11.8384 3.8 13.6156 4.90688 14.5678 6.55688C15.0903 6.20625 15.7228 6 16.4 6C18.2219 6 19.7 7.47813 19.7 9.3C19.7 9.71938 19.6209 10.1181 19.48 10.4894C21.4875 10.895 23 12.6722 23 14.8C23 17.2303 21.0303 19.2 18.6 19.2H5.95ZM8.66563 13.4594L11.4156 16.2094C11.7388 16.5325 12.2613 16.5325 12.5809 16.2094L15.3309 13.4594C15.6541 13.1363 15.6541 12.6138 15.3309 12.2941C15.0078 11.9744 14.4853 11.9709 14.1656 12.2941L12.825 13.6347V9.025C12.825 8.56782 12.4572 8.2 12 8.2C11.5428 8.2 11.175 8.56782 11.175 9.025V13.6347L9.83438 12.2941C9.51125 11.9709 8.98875 11.9709 8.66906 12.2941C8.34938 12.6172 8.34594 13.1397 8.66906 13.4594H8.66563Z" fill="white"/>
</svg>
